<svg xmlns="http://www.w3.org/2000/svg" xmlns:xlink="http://www.w3.org/1999/xlink" width="500" zoomAndPan="magnify" viewBox="0 0 375 374.999991" height="500" preserveAspectRatio="xMidYMid meet" version="1.0"><defs><g/><clipPath id="b1d9751577"><path d="M 20.082031 9.734375 L 354.917969 9.734375 L 354.917969 344.566406 L 20.082031 344.566406 Z M 20.082031 9.734375 " clip-rule="nonzero"/></clipPath><clipPath id="75fb9ae9dd"><path d="M 187.5 9.734375 C 95.039062 9.734375 20.082031 84.6875 20.082031 177.148438 C 20.082031 269.609375 95.039062 344.566406 187.5 344.566406 C 279.960938 344.566406 354.917969 269.609375 354.917969 177.148438 C 354.917969 84.6875 279.960938 9.734375 187.5 9.734375 Z M 187.5 9.734375 " clip-rule="nonzero"/></clipPath></defs><g clip-path="url(#b1d9751577)"><g clip-path="url(#75fb9ae9dd)"><path fill="#000000" d="M 20.082031 9.734375 L 354.917969 9.734375 L 354.917969 344.566406 L 20.082031 344.566406 Z M 20.082031 9.734375 " fill-opacity="1" fill-rule="nonzero"/></g></g><g fill="#ffffff" fill-opacity="1"><g transform="translate(55.638289, 199.733387)"><g><path d="M 3 0 L 3 -67.859375 L 23.703125 -67.859375 L 29.390625 -26.46875 L 35.078125 -67.859375 L 55.9375 -67.859375 L 55.9375 0 L 43.53125 0 L 43.53125 -48.90625 L 35.703125 0 L 23.546875 0 L 15.25 -48.90625 L 15.25 0 Z M 3 0 "/></g></g></g><g fill="#ffffff" fill-opacity="1"><g transform="translate(114.56935, 199.733387)"><g><path d="M 18.71875 0.625 C 13.132812 0.625 8.988281 -0.953125 6.28125 -4.109375 C 3.570312 -7.265625 2.21875 -11.953125 2.21875 -18.171875 L 2.21875 -67.859375 L 15.40625 -67.859375 L 15.40625 -18.71875 C 15.40625 -16.5625 15.613281 -14.875 16.03125 -13.65625 C 16.457031 -12.445312 17.351562 -11.84375 18.71875 -11.84375 C 20.09375 -11.84375 20.988281 -12.4375 21.40625 -13.625 C 21.832031 -14.8125 22.046875 -16.507812 22.046875 -18.71875 L 22.046875 -67.859375 L 35.234375 -67.859375 L 35.234375 -18.171875 C 35.234375 -11.953125 33.875 -7.265625 31.15625 -4.109375 C 28.445312 -0.953125 24.300781 0.625 18.71875 0.625 Z M 18.71875 0.625 "/></g></g></g><g fill="#ffffff" fill-opacity="1"><g transform="translate(152.013478, 199.733387)"><g><path d="M 18.09375 0.625 C 14.988281 0.625 12.171875 0.0195312 9.640625 -1.1875 C 7.109375 -2.394531 5.117188 -4.171875 3.671875 -6.515625 C 2.222656 -8.859375 1.5 -11.691406 1.5 -15.015625 L 1.5 -32 L 14.859375 -32 L 14.859375 -15.796875 C 14.859375 -14.585938 15.109375 -13.625 15.609375 -12.90625 C 16.109375 -12.195312 16.882812 -11.84375 17.9375 -11.84375 C 18.9375 -11.84375 19.6875 -12.171875 20.1875 -12.828125 C 20.6875 -13.492188 20.9375 -14.429688 20.9375 -15.640625 L 20.9375 -67.859375 L 34.609375 -67.859375 L 34.609375 -16.984375 C 34.609375 -13.453125 33.910156 -10.359375 32.515625 -7.703125 C 31.117188 -5.046875 29.164062 -2.992188 26.65625 -1.546875 C 24.15625 -0.0976562 21.300781 0.625 18.09375 0.625 Z M 18.09375 0.625 "/></g></g></g><g fill="#ffffff" fill-opacity="1"><g transform="translate(188.82564, 199.733387)"><g/></g></g><g fill="#ffffff" fill-opacity="1"><g transform="translate(207.310719, 199.733387)"><g><path d="M 1.1875 0 L 7.734375 -67.859375 L 30.734375 -67.859375 L 37.203125 0 L 24.328125 0 L 23.390625 -10.984375 L 15.171875 -10.984375 L 14.375 0 Z M 16.1875 -21.796875 L 22.359375 -21.796875 L 19.359375 -56.328125 L 18.71875 -56.328125 Z M 16.1875 -21.796875 "/></g></g></g><g fill="#ffffff" fill-opacity="1"><g transform="translate(245.623808, 199.733387)"><g><path d="M 19.125 0.625 C 12.957031 0.625 8.503906 -0.898438 5.765625 -3.953125 C 3.023438 -7.003906 1.65625 -11.925781 1.65625 -18.71875 L 1.65625 -25.359375 L 15.015625 -25.359375 L 15.015625 -16.90625 C 15.015625 -13.53125 16.09375 -11.84375 18.25 -11.84375 C 19.457031 -11.84375 20.296875 -12.195312 20.765625 -12.90625 C 21.242188 -13.625 21.484375 -14.828125 21.484375 -16.515625 C 21.484375 -18.722656 21.21875 -20.550781 20.6875 -22 C 20.164062 -23.445312 19.492188 -24.65625 18.671875 -25.625 C 17.859375 -26.601562 16.398438 -28.117188 14.296875 -30.171875 L 8.453125 -36.03125 C 3.921875 -40.445312 1.65625 -45.34375 1.65625 -50.71875 C 1.65625 -56.507812 2.984375 -60.921875 5.640625 -63.953125 C 8.304688 -66.984375 12.191406 -68.5 17.296875 -68.5 C 23.410156 -68.5 27.804688 -66.878906 30.484375 -63.640625 C 33.171875 -60.398438 34.515625 -55.328125 34.515625 -48.421875 L 20.703125 -48.421875 L 20.625 -53.09375 C 20.625 -53.988281 20.375 -54.695312 19.875 -55.21875 C 19.375 -55.75 18.675781 -56.015625 17.78125 -56.015625 C 16.71875 -56.015625 15.921875 -55.722656 15.390625 -55.140625 C 14.867188 -54.554688 14.609375 -53.765625 14.609375 -52.765625 C 14.609375 -50.554688 15.875 -48.269531 18.40625 -45.90625 L 26.3125 -38.3125 C 28.15625 -36.519531 29.679688 -34.820312 30.890625 -33.21875 C 32.097656 -31.613281 33.070312 -29.71875 33.8125 -27.53125 C 34.550781 -25.34375 34.921875 -22.75 34.921875 -19.75 C 34.921875 -13.0625 33.695312 -7.992188 31.25 -4.546875 C 28.800781 -1.097656 24.757812 0.625 19.125 0.625 Z M 19.125 0.625 "/></g></g></g><g fill="#ffffff" fill-opacity="1"><g transform="translate(282.041, 199.733387)"><g><path d="M 3 0 L 3 -67.859375 L 16.4375 -67.859375 L 16.4375 -40.6875 L 22.75 -67.859375 L 36.421875 -67.859375 L 28.828125 -36.8125 L 38 0 L 23.9375 0 L 16.515625 -32.859375 L 16.515625 0 Z M 3 0 "/></g></g></g></svg>