<?xml version="1.0" standalone="no"?>
<!DOCTYPE svg PUBLIC "-//W3C//DTD SVG 20010904//EN"
 "http://www.w3.org/TR/2001/REC-SVG-20010904/DTD/svg10.dtd">
<svg version="1.0" xmlns="http://www.w3.org/2000/svg"
 width="500.000000pt" height="500.000000pt" viewBox="0 0 500.000000 500.000000"
 preserveAspectRatio="xMidYMid meet">

<g transform="translate(0.000000,500.000000) scale(0.100000,-0.100000)"
fill="#000000" stroke="none">
<path d="M2285 4859 c-603 -63 -1144 -354 -1523 -821 -225 -277 -387 -629
-456 -990 -41 -213 -46 -550 -11 -758 77 -462 278 -865 595 -1194 132 -136
226 -215 386 -322 284 -190 630 -316 969 -354 116 -13 394 -13 510 0 309 35
665 158 917 318 494 313 850 797 988 1340 54 215 64 297 64 552 1 251 -10 354
-59 551 -250 997 -1160 1699 -2185 1688 -63 -1 -151 -5 -195 -10z m-1225
-1624 c0 -13 72 -520 74 -522 2 -2 17 106 35 239 18 134 36 254 40 267 7 23 8
23 141 23 l135 0 3 -451 2 -451 -85 0 -85 0 -2 303 -3 302 -39 -245 c-21 -135
-43 -271 -48 -302 l-10 -58 -82 0 -81 0 -50 301 -50 301 -3 -301 -2 -301 -85
0 -85 0 0 448 c0 247 2 451 4 453 5 5 276 -1 276 -6z m670 -347 c5 -373 7
-388 51 -388 10 0 23 9 29 19 6 13 10 147 10 369 0 192 2 351 4 353 2 2 43 3
91 1 l86 -4 -3 -371 c-3 -332 -5 -376 -21 -412 -39 -87 -91 -119 -197 -119
-116 -1 -182 44 -210 143 -9 34 -15 753 -6 762 2 2 40 4 83 3 l78 -1 5 -355z
m1436 354 c5 -4 27 -183 48 -407 20 -220 40 -421 43 -447 l6 -48 -86 0 -86 0
-6 58 c-3 31 -7 64 -8 72 -2 11 -17 16 -53 18 -59 3 -64 -3 -64 -95 l0 -53
-91 0 -91 0 6 43 c3 23 21 211 41 417 19 206 38 389 41 407 l5 32 137 4 c75 1
139 4 142 5 3 1 10 -2 16 -6z m439 -5 c77 -30 115 -86 123 -182 l5 -65 -92 0
-91 0 0 40 c0 47 -26 68 -61 49 -18 -9 -20 -17 -15 -47 4 -29 26 -57 110 -142
138 -140 151 -165 151 -300 0 -94 -3 -111 -26 -155 -31 -62 -74 -92 -143 -100
-84 -11 -161 10 -205 54 -46 46 -61 99 -61 211 l0 81 88 -3 87 -3 1 -63 c3
-95 9 -112 43 -112 33 0 41 14 41 70 0 63 -16 89 -118 195 -116 119 -135 154
-140 255 -3 66 0 81 25 130 37 73 88 100 183 99 36 0 79 -6 95 -12z m375 -163
c5 -164 5 -167 18 -114 7 30 24 106 38 168 l26 112 89 0 c50 0 89 -4 89 -10 0
-5 -20 -91 -45 -191 -25 -100 -45 -193 -45 -206 0 -13 25 -122 55 -243 30
-121 55 -226 55 -235 0 -12 -16 -15 -90 -15 -85 0 -90 1 -95 23 -3 12 -26 108
-50 212 l-43 190 -1 -212 -1 -213 -90 0 -90 0 0 449 c0 294 3 450 10 453 6 2
45 3 88 2 l77 -1 5 -169z m-1492 -207 l-3 -373 -26 -49 c-76 -148 -313 -151
-386 -5 -21 40 -23 59 -23 188 l0 143 88 -3 87 -3 5 -130 5 -130 27 -3 c22 -3
30 2 38 23 6 16 10 165 10 371 l0 344 90 0 91 0 -3 -373z"/>
<path d="M3001 2902 c-6 -103 -14 -206 -18 -229 l-5 -43 41 0 c38 0 41 2 41
28 -1 58 -36 421 -41 427 -3 3 -11 -79 -18 -183z"/>
</g>
</svg>
